# xmcd
#
# Track frame offsets: 
#        150
#        15525
#        42638
#        64708
#        79482
#        101738
#        118870
#        140900
#
# Disc length: 2125 seconds
#
# Revision: 1
# Processed by: cddbd v1.5.2PL0 Copyright (c) Steve Scherf et al.
# Submitted via: ExactAudioCopyFreeDBPlugin 1.0
#
DISCID=76084b08
DTITLE=Alicia Myers - Alicia
DYEAR=1981
DGENRE=Soul
TTITLE0=Don't Stop What You're Doin'
TTITLE1=If You Play Your Cards Right
TTITLE2=Spirit Of The Boogie
TTITLE3=We Can't Stay In Bed Forever
TTITLE4=Reservation For One
TTITLE5=I Want To Thank You
TTITLE6=Reggae Funky Dance
TTITLE7=Life, Joy And Happiness
EXTD=
EXTT0=
EXTT1=
EXTT2=
EXTT3=
EXTT4=
EXTT5=
EXTT6=
EXTT7=
PLAYORDER=
